<svg width="220" height="220" viewBox="0 0 220 220" xmlns="http://www.w3.org/2000/svg"><g fill="none" fill-rule="evenodd"><circle cx="110" cy="110" r="110" fill="#41EDC7"/><path d="M101.414 83.414L98.83 86H116v4H98.829l2.585 2.586-2.828 2.828-6-6a2 2 0 010-2.828l6-6 2.828 2.828zM109.657 54a11.57 11.57 0 00-6.535 2 11.575 11.575 0 006.535 2H146v-4h-10v-4h16a6 6 0 010 12h-42.343a15.555 15.555 0 01-11.071-4.586 2 2 0 010-2.828A15.555 15.555 0 01109.656 50H132v4h-22.343zM150 58h2a2 2 0 000-4h-2v4zm-20.32 48.51l2.906 2.904 2.828-2.828-6-6a2 2 0 00-2.828 0l-6 6 2.828 2.828 2.073-2.072C122.913 120.491 111.398 129.982 98 130h-6v4h6c16.114 0 29.483-11.974 31.68-27.49zm17.734-11.096L152 90.83l4.586 4.585 2.828-2.828L154.83 88l4.585-4.586-2.828-2.828L152 85.17l-4.586-4.585-2.828 2.828L149.17 88l-4.585 4.586 2.828 2.828zM168 66H66V52a2 2 0 00-2-2h-4c-5.52.006-9.994 4.48-10 10v4h4v-4a6.007 6.007 0 016-6h2v76h-2a9.948 9.948 0 00-6 2.005V68h-4v72c.006 5.52 4.48 9.994 10 10h44v-4H60a6 6 0 010-12h4a2 2 0 002-2V70h100v76h-4v4h6a2 2 0 002-2V68a2 2 0 00-2-2zm-10 80.113V162a8.01 8.01 0 01-8 8h-28a2 2 0 01-1.302-.482l-12.564-10.77a6.106 6.106 0 01-1.986-5.98 6.215 6.215 0 016.07-4.768h.34a6.133 6.133 0 013.817 1.339l5.625 4.5v-20.064a6.028 6.028 0 011.86-4.342 5.958 5.958 0 014.427-1.651 6.05 6.05 0 015.713 6.105v6.456a5.995 5.995 0 016 1.189 5.99 5.99 0 017.998-.002 5.945 5.945 0 014.29-1.523 6.05 6.05 0 015.712 6.106zm-4 0a2.082 2.082 0 00-1.9-2.11A2 2 0 00150 146a2 2 0 01-4 0 2 2 0 00-4 0 2 2 0 01-4 0 2 2 0 00-4 0 2 2 0 01-4 0v-12.113a2.082 2.082 0 00-1.9-2.11 2.006 2.006 0 00-1.48.55c-.397.376-.622.9-.62 1.448V158a2 2 0 01-3.25 1.562l-8.875-7.1a2.116 2.116 0 00-1.318-.463h-.34a2.19 2.19 0 00-2.166 1.64c-.173.764.09 1.561.684 2.072L122.74 166H150a4.005 4.005 0 004-4v-15.887zm-60.586-28.7L98 112.829l4.586 4.585 2.828-2.828L100.83 110l4.585-4.586-2.828-2.828L98 107.17l-4.586-4.585-2.828 2.828L95.17 110l-4.585 4.586 2.828 2.827zM88 130a8 8 0 11-8-8 8.009 8.009 0 018 8zm-4 0a4 4 0 10-8 0 4 4 0 008 0zm4-42a8 8 0 11-8-8 8.009 8.009 0 018 8zm-4 0a4 4 0 10-8 0 4 4 0 008 0zm76 40a8 8 0 11-8-8 8.009 8.009 0 018 8zm-4 0a4 4 0 10-8 0 4 4 0 008 0zm-36-40a8 8 0 118 8 8.009 8.009 0 01-8-8zm4 0a4 4 0 108 0 4 4 0 00-8 0z" fill="#101418" fill-rule="nonzero"/></g></svg>