<svg width="220" height="220" viewBox="0 0 220 220" xmlns="http://www.w3.org/2000/svg"><g fill="none" fill-rule="evenodd"><circle fill="#52CEFB" cx="110" cy="110" r="110"/><path d="M84 102h32v4H84v-4zm0-8v4h4v-4h-4zm8 0v4h4v-4h-4zm42.238 34.944l-5.274 1.38.113 10.343a2 2 0 01-2.952 1.78l-3.34-1.808a68.452 68.452 0 00-24.273-7.767l.698 9.356a2 2 0 01-1.942 2.148l-7.01.186h-.054a2 2 0 01-1.996-1.888l-.548-9.763-1.49.017h-.022a2 2 0 01-2-1.979L84 117.344a2 2 0 011.978-2.021l11.77-.129a68.472 68.472 0 0024.668-8.377l3.3-1.881a2 2 0 012.99 1.716l.113 10.344 5.303 1.264a2 2 0 011.536 1.924l.075 6.803a2 2 0 01-1.495 1.957zm-39.174 11.49l-.566-7.596-2.834.03.429 7.644 2.971-.079zm.968-11.613l-.105-9.607-7.905.087.104 9.605 7.905-.085zm29.008 8.49l-.296-27.217-.347.198a72.427 72.427 0 01-24.473 8.623l.11 10.118a72.348 72.348 0 0118.166 4.98l-.204-18.74 4-.043.225 20.619c.828.409 1.652.83 2.468 1.272l.351.19zm6.675-11.842l-.04-3.68-2.81-.67.054 5.081 2.796-.731zM144 148.047v-6.44l3.093 1.263 1.513-3.703-4.606-1.88V130h-4v5.653l-3.12-1.275-1.513 3.703 4.633 1.892v8.073h4zM154 126h4v-4h-4v4zm-54-32v4h4v-4h-4zM50 76v-4a2 2 0 012-2h2v-8h4v8h20V54H58v4h-4v-4a4.005 4.005 0 014-4h20a4.005 4.005 0 014 4v16h2a2 2 0 012 2v4a6.007 6.007 0 01-6 6H56a6.007 6.007 0 01-6-6zm4 0a2.002 2.002 0 002 2h24a2.002 2.002 0 002-2v-2H54v2zm102 20V86h-4v8h-4v4h6a2 2 0 002-2zM92 76v-4a2 2 0 012-2h2V54a4.005 4.005 0 014-4h20a4.005 4.005 0 014 4v16h2a2 2 0 012 2v4a6.007 6.007 0 01-6 6H98a6.007 6.007 0 01-6-6zm8-6h20V54h-20v16zm-4 6a2.002 2.002 0 002 2h24a2.002 2.002 0 002-2v-2H96v2zM62 58v8h4v-8h-4zm88 64h-10v4h10v-4zm-46-56h4v-8h-4v8zm32 20H84a8.009 8.009 0 00-8 8v8h-2a8.009 8.009 0 00-8 8v6h4v-6a4.005 4.005 0 014-4h2v44h4V94a4.005 4.005 0 014-4h52a4.005 4.005 0 014 4v13.07l-4.834 1.975 1.513 3.703 3.321-1.357V118h4v-8.243l4.405-1.8-.627-1.536A4 4 0 01150 110v8h4v-8a7.95 7.95 0 00-1.025-3.91l3.246-1.324-1.512-3.703-3.909 1.595.585 1.432A7.969 7.969 0 00146 102h-2v-8a8.009 8.009 0 00-8-8zm-2-10v-4a2 2 0 012-2h2V54a4.005 4.005 0 014-4h20a4.005 4.005 0 014 4v16h2a2 2 0 012 2v4a6.007 6.007 0 01-6 6h-24a6.007 6.007 0 01-6-6zm8-6h20V54h-20v16zm-4 6a2.002 2.002 0 002 2h24a2.002 2.002 0 002-2v-2h-28v2zm8-10h4v-8h-4v8zm6 104H68a8.009 8.009 0 01-8-8v-6a2 2 0 012-2h4v-34h4v34h25.172a8.77 8.77 0 016.242 2.586 4.796 4.796 0 003.414 1.414h8.344a4.796 4.796 0 003.414-1.414 8.77 8.77 0 016.242-2.586H150v-24h4v11.37l2.423.99-1.512 3.703-.911-.371V154h4a2 2 0 012 2v6a8.009 8.009 0 01-8 8zm-84-4h84a4.005 4.005 0 004-4v-4h-33.172a4.796 4.796 0 00-3.414 1.414 8.77 8.77 0 01-6.242 2.586h-8.344a8.77 8.77 0 01-6.242-2.586A4.796 4.796 0 0095.172 158H64v4a4.005 4.005 0 004 4zm-4-80v10a2 2 0 002 2h6v-4h-4v-8h-4z" fill="#101418" fill-rule="nonzero"/></g></svg>