<svg width="220" height="220" viewBox="0 0 220 220" xmlns="http://www.w3.org/2000/svg"><g fill="none" fill-rule="evenodd"><circle fill="#9148F2" cx="110" cy="110" r="110"/><path d="M170 118v-1.965a10.04 10.04 0 00-7.253-9.615l-8.019-2.292-2.728-1.364v-6.275a16.028 16.028 0 005.881-10.546A6.998 6.998 0 00160 72.677V70a15.998 15.998 0 00-16-16h-4c-5.48.003-10.66 2.5-14.076 6.785a10.015 10.015 0 00-9.114-8.75A8.761 8.761 0 00111.172 50H94a2 2 0 00-2 2v4a7.966 7.966 0 002.025 5.313A9.833 9.833 0 0094 62v2H70a6.007 6.007 0 016-6h12v-4H76c-5.52.006-9.994 4.48-10 10v8.073a7 7 0 000 13.855V86a15.896 15.896 0 004 10.582v1.85a1.966 1.966 0 00-2.078.138 14.025 14.025 0 00-5.908 10.962l-4.228 1.133a10.036 10.036 0 00-7.32 6.73l3.814 1.21a6.023 6.023 0 014.503-4.066l3.672-.984a13.875 13.875 0 004.203 6.863c.012.011 1.293 1.032 1.342 1.067V128a4.005 4.005 0 00-4 4H54v-10h-4v32a8.009 8.009 0 008 8h5.353c.197.412.413.813.647 1.202V168a2 2 0 002 2h94a2 2 0 001.94-2.485L158.561 154H162a8.009 8.009 0 008-8v-24h-4v2h-5.94a14.671 14.671 0 00-1.54-2.143l-1.007-1.165-3.025 2.616 1.007 1.165c.614.708 1.13 1.495 1.536 2.34.006.014.01.028.017.042a9.97 9.97 0 01.846 2.798c.003.025.01.05.013.075.012.09.02.182.03.273H156c-.131 0-10 1.96-10 1.96V120l4.8 3.6a2 2 0 003.184-1.352l1.711-13.684 5.954 1.7a6.024 6.024 0 014.351 5.771V118h4zm-12-41.829a3 3 0 010 5.657v-5.657zm-92 5.657a3 3 0 010-5.657v5.657zm80-23.663c5.774.978 10 5.979 10 11.835v1.397l-10-8.334v-4.898zm8 16.772V84a12.006 12.006 0 01-16 11.316v-4.85A5.996 5.996 0 00148 86h-4a2 2 0 01-4 0h-2V71l5.935-4.45L154 74.937zm-28-2.766a3 3 0 010 5.657v-5.657zM126 82v-.073a7 7 0 00.531-13.756A14.022 14.022 0 01140 58h2v5l-7.2 5.4a2 2 0 00-.8 1.6v35.96l-5.22-1.043A9.913 9.913 0 01126 98V82zm-2.02 38.283l1.7-11.907 9.887 1.978a8.022 8.022 0 016.433 7.844V128h-10v-4h-4v4c-.102 0-.203.008-.304.023l-18.968 2.918L92 128.55V124h-4v1.528l-.211-.422a2 2 0 00-.895-.895L84 122.764v-1.279A14.054 14.054 0 0090 110c0-.253-.008-.505-.022-.755l4.341-.869 1.7 11.907a2 2 0 003.394 1.131l5.712-5.712 2.977 8.93a2 2 0 003.796 0l2.977-8.93 5.712 5.712a2 2 0 003.394-1.131h-.001zM142 132v3.694l-19.63-2.804 5.783-.89H142zm-55.102-30.767A15.86 15.86 0 0090 99.858v5.304l-.808.162a14.036 14.036 0 00-2.294-4.09zm31.102 2.1l-5.6 7.467c-.131.17-.232.363-.297.568L110 117.675l-2.112-6.328a2.025 2.025 0 00-.288-.547l-5.6-7.466V95.86a16.025 16.025 0 0016 0v7.474zm2.599 3.202l1.217.61-1.23 8.612-3.945-3.945 3.957-5.277zm-17.24 5.278l-3.945 3.944-1.23-8.613 1.218-.609 3.957 5.278zm19.666-8.536l-1.025-.513V98a13.98 13.98 0 001.025 5.277zM118 56.343A6.01 6.01 0 01122 62v3.171l-4-4v-4.828zm4 14.485V82c0 6.627-5.373 12-12 12s-12-5.373-12-12V70.828L104.828 64h10.344L122 70.828zm-24-5.656v-1.425c.398.102.802.174 1.211.214L98 65.17zM96 54h15.172a4.793 4.793 0 012.828.914V60h-14a4.005 4.005 0 01-4-4v-2zm1.061 37.416c.293.401.606.79.939 1.166v10.182l-2.655 1.328-1.345.269v-7.78a15.91 15.91 0 003.061-5.165zM94 72.171v5.657a3 3 0 010-5.657zM70 68h1.172L70 69.172V68zm0 6.828L76.828 68h10.344l2.485 2.485a6.969 6.969 0 00-1.604 3.67 2.998 2.998 0 101.9 5.688A6.988 6.988 0 0094 81.927V86a12.003 12.003 0 01-10.888 11.95 13.88 13.88 0 00-6.192-1.918 1.987 1.987 0 00-1.1.25 12.092 12.092 0 01-2.392-1.884A11.93 11.93 0 0170 86V74.828zm7.46 31.337L74 107.35v-7.496c.51.296 1.036.563 1.575.8l1.885 5.511zm-11.366 5.188c-.007-.051-.012-.103-.018-.155a9.9 9.9 0 012.109-7.428l2.353 6.877a2 2 0 002.54 1.245l7.57-2.59a2 2 0 001.244-2.54l-2.05-5.994A9.998 9.998 0 0181 118.659a2 2 0 00-1 1.731V128h-8v-7.61a2 2 0 00-.998-1.731c-.187-.108-1.612-1.163-1.622-1.171a10.057 10.057 0 01-3.286-6.135zM62 156c0 .67.05 1.338.145 2H58a4.005 4.005 0 01-4-4v-4h9.366A13.95 13.95 0 0062 156zm-8-10v-10h10v6a4.004 4.004 0 002.52 3.713c-.102.094-.203.19-.302.287H54zm23.53 20l-2.59-7.182 3.764-1.356 3.055 8.471c.008.023.02.044.028.067H77.53zm4.259-11.775a2 2 0 00-2.56-1.203l-7.527 2.713a2 2 0 00-1.202 2.558l2.628 7.286a10 10 0 01-2.125-18.238c.496-.289.844-.778.954-1.341h8.086c.11.564.459 1.052.955 1.341a10 10 0 013.393 14.101l-2.602-7.217zM88 166h-2.209A14.014 14.014 0 0088 163.212V166zm1.85-12a14.058 14.058 0 00-2.834-6.625l13.764 3.59L91.675 154H89.85zM128 166H92v-8c.215 0 15.875-5.183 15.875-5.183l19.62 5.118c.165.043.334.065.505.065v8zm-46-24H68v-10h14a2 2 0 002-2v-2.764l.51.255 1.701 3.403a2 2 0 001.506 1.086L142 139.735V150a4.005 4.005 0 01-4 4h-9.744S82.171 142 82 142zm50 24v-8h6a8.003 8.003 0 006.925-4h9.515l1 4H146v4h10.439l1 4H132zm34-38v2h-4.043a13.69 13.69 0 00-.088-.817v-.008l-.005-.03a13.855 13.855 0 00-.21-1.145H166zm-9.802 6H166v3.56l-13.802-2.76 4-.8zm9.802 7.64V146a4.005 4.005 0 01-4 4h-7.7l-8.3-2.554v-9.806l20 4zm-22.017-30.08a12.032 12.032 0 00-5.983-4.672V99.49c3.318.857 6.822.627 10-.654v4.691l-4.017 8.033zm6.46 6.772l-3.908-2.93 4.36-8.719.945.473-1.397 11.176zM75 80a3 3 0 110-6 3 3 0 010 6zm3 6h1.222a10.814 10.814 0 005.718-1.696l2.12 3.392A14.807 14.807 0 0179.222 90H78v-4zm28-2h1.528a17.03 17.03 0 007.578-1.789l1.788 3.578A21.051 21.051 0 01107.528 88H106v-4zm-3-12a3 3 0 110 6 3 3 0 010-6zm11 3a3 3 0 116 0 3 3 0 01-6 0zm32 4a3 3 0 116 0 3 3 0 01-6 0z" fill="#101418" fill-rule="nonzero"/></g></svg>