<svg width="120" height="120" viewBox="0 0 120 120" xmlns="http://www.w3.org/2000/svg"><g fill="none" fill-rule="evenodd"><path d="M119.784 59.892c0 33.077-26.815 59.892-59.892 59.892S0 92.969 0 59.892C0 26.814 26.815 0 59.892 0s59.892 26.814 59.892 59.892" fill="#EB4BBB"/><path d="M87.556 75.492c1.798 2.598.157 4.164-1.69 5.437l-.277.189-.14.093-.278.183c-7.598 4.98-15.91 7.65-24.729 7.605-9.566.054-18.046-2.568-25.74-7.729-1.886-1.265-4.18-2.721-2.386-5.528 1.636-2.56 3.446-1.818 5.352-.666l.293.18.296.184.296.186c14.354 8.983 28.755 8.924 43.071-.097 2.088-1.316 4.133-2.637 5.932-.037zM79.37 31.001c2.606.059 5.214.028 7.821.015.643-.004 1.134.03 1.124.916-.082 7.76.228 15.544-.283 23.273-.826 12.488-10.798 15.646-19.039 14.082-3.707-.703-5.33-1.838-8.946-5.757-.128.086-.301.15-.398.275-4.064 5.263-9.526 6.581-15.69 5.525-6.866-1.178-11.473-6.222-11.962-13.397-.373-5.455-.246-10.947-.312-16.423-.035-2.77-.006-5.543-.006-8.4h10.075c.028.565.077 1.097.077 1.63.005 6.21 0 12.42.007 18.63.002.867 0 1.74.097 2.599.55 4.866 4.574 7.335 9.121 5.622 1.88-.708 3.054-2.111 3.491-4.043.3-1.322.435-2.707.445-4.066.046-6.21.02-12.42.02-18.63v-1.728h10.033c.02.497.06.98.06 1.464.004 6.484-.002 12.968.01 19.452 0 .773.012 1.56.146 2.317.817 4.61 4.371 6.75 8.788 5.323 2.331-.752 3.905-2.837 3.998-5.768.138-4.334.099-8.673.12-13.01.014-2.877.031-5.755-.013-8.63-.014-.931.246-1.293 1.216-1.271z" fill="#FFF"/></g></svg>