<svg width="120" height="120" viewBox="0 0 120 120" xmlns="http://www.w3.org/2000/svg"><g fill="none" fill-rule="evenodd"><circle fill="#EB4CBB" cx="60" cy="60" r="60"/><path d="M87.613 80.509c2.037 2.981-.31 4.63-2.404 6.02-7.657 5.079-16.032 7.802-24.918 7.756-9.64.054-18.185-2.619-25.937-7.883-.173-.117-.35-.236-.525-.357l-.264-.184c-1.665-1.18-3.177-2.624-1.616-5.098 1.734-2.744 3.66-1.767 5.69-.495l.297.188.299.19c14.463 9.161 28.974 9.102 43.4-.099 2.103-1.342 4.164-2.69 5.978-.038zm-6.128-54.794c2.891.07 5.784.033 8.676.017.713-.003 1.256.036 1.247 1.076-.092 9.114.252 18.256-.315 27.335-.916 14.666-11.977 18.375-21.119 16.538-4.11-.825-5.911-2.158-9.924-6.76-.142.1-.333.175-.44.323-4.508 6.18-10.567 7.728-17.404 6.487-7.616-1.382-12.726-7.307-13.27-15.733-.413-6.408-.271-12.857-.346-19.289-.037-3.254-.007-6.51-.007-9.866H39.76c.031.665.085 1.29.086 1.914.006 7.294 0 14.587.008 21.881.002 1.018 0 2.044.108 3.053.61 5.714 5.074 8.615 10.117 6.603 2.087-.833 3.388-2.48 3.872-4.749.331-1.552.484-3.179.494-4.775.05-7.293.023-14.587.023-21.881V25.86h11.128c.023.582.066 1.15.066 1.718.006 7.616-.002 15.233.011 22.848.002.908.014 1.831.164 2.72.905 5.416 4.848 7.927 9.747 6.253 2.586-.883 4.332-3.333 4.435-6.776.153-5.09.11-10.186.132-15.28.017-3.38.035-6.758-.013-10.136-.016-1.093.272-1.517 1.348-1.492z" fill="#41EDC7"/></g></svg>