<svg width="220" height="220" viewBox="0 0 220 220" xmlns="http://www.w3.org/2000/svg"><g fill="none" fill-rule="evenodd"><circle cx="110" cy="110" r="110" fill="#41EDC7"/><path d="M107.528 90H106v-4h1.528a17.03 17.03 0 007.578-1.789l1.788 3.578A21.052 21.052 0 01107.528 90zM170 74v26a2 2 0 01-2 2 14.02 14.02 0 01-12.966-8.727A16.022 16.022 0 01152 96.489v6.274l2.728 1.364 8.019 2.292a10.04 10.04 0 017.253 9.616V118h-4v-1.965a6.023 6.023 0 00-4.35-5.77l-5.954-1.7-1.71 13.684a2 2 0 01-3.186 1.351L146 120v11.96l9.608-1.921c.129-.026.26-.039.392-.039h1.94a9.893 9.893 0 00-.888-3.146 10.523 10.523 0 00-1.558-2.381l-1.007-1.165 3.025-2.616 1.008 1.165a14.69 14.69 0 011.54 2.143H166v-2h4v24a8.009 8.009 0 01-8 8h-3.439l3.38 13.515A2 2 0 01160 170H66a2 2 0 01-2-2v-6h-6a8.009 8.009 0 01-8-8v-33.582h4V132h14a2 2 0 01.358.032L74 133.057V122.83l-2.586 2.585a2 2 0 01-3.394-1.131l-1.681-11.767-7.556 2.024a2.36 2.36 0 01-.084.02 5.98 5.98 0 00-3.701 2.545l-3.334-2.21a9.96 9.96 0 016.122-4.23l9.5-2.544L70 106.764v-8.182a15.87 15.87 0 01-3.879-8.64A6.998 6.998 0 0164 76.678V72a18.005 18.005 0 0127.001-15.592L89 59.871A14 14 0 0068 72v4a20.422 20.422 0 0016.993-9.094l1.343-2.015a2 2 0 013.328 0l2.481 3.72A6.938 6.938 0 0194 68.073V62c0-.923.127-1.84.379-2.729A7 7 0 01101 50h10.172c2.06 0 4.054.72 5.638 2.035A10.011 10.011 0 01126 62v6.073a7.002 7.002 0 014.573 2.697 7.941 7.941 0 012.682-.735L142 63.039V58h-2a13.983 13.983 0 00-9.26 3.5l-2.647-3A17.98 17.98 0 01140 54h4a15.928 15.928 0 0112.496 6.013c7.53.274 13.494 6.453 13.504 13.987zM66 80.171a3 3 0 000 5.657v-5.657zm72.204-8.973A8.06 8.06 0 01140.925 74h2.152a8.025 8.025 0 015.221-3.816l-4.323-3.602-5.77 4.616zm-7.888 8.348A3.998 3.998 0 10134 74c-.709 0-1.405.19-2.016.55a6.969 6.969 0 01-1.668 4.996zM126 77.828a3 3 0 000-5.657v5.657zm-4 19.107v5.829l2.655 1.328 2.79.558 4.555-1.886v-6.275A16.02 16.02 0 01126 84v4c0 3.412-1.454 6.663-4 8.935zM142 128v-9.802a8.021 8.021 0 00-6.432-7.844l-11.96-2.393c-.175-.035-1.77-.806-1.77-.806a12 12 0 01-23.679.001s-1.592.77-1.767.805l-11.96 2.393A8.021 8.021 0 0078 118.198V128h10v-4h4v4c.102 0 .204.008.304.023l17.7 2.723 17.692-2.723A2 2 0 01128 128v-4h4v4h10zm-13.847 4l-5 .77L142 135.668V132h-13.847zm-44.505-25.569l6.352-1.27v-3.3a16.025 16.025 0 01-16 0v5.473l2.585 3.445a11.985 11.985 0 017.063-4.348zm21.354 5.01a7.998 7.998 0 0012.207-2.78 7.923 7.923 0 00.791-3.466v-5.883a11.944 11.944 0 01-4 .688h-8c-1.363 0-2.716-.232-4-.688v5.883a7.957 7.957 0 003.002 6.246zM118 61.17l4 4V62a6.01 6.01 0 00-4-5.657v4.828zM104.829 64l-6.31 6.31 1.491 2.486a3.003 3.003 0 111.763 2.939l1.36 2.265h13.735l1.359-2.265a3 3 0 111.763-2.939l1.492-2.486-6.31-6.31h-10.343zM98 57c0 2.375 2.305 3 3 3h13v-5.085a4.835 4.835 0 00-2.828-.915H101a3.003 3.003 0 00-3 3zm0 8.172l1.37-1.37a7.04 7.04 0 01-1.37-.483v1.853zM98 88a8.009 8.009 0 008 8h8a8.009 8.009 0 008-8V77.22l-2.285 3.809A2 2 0 01118 82h-16a2 2 0 01-1.715-.971L98 77.221V88zm-4 10.582v5.779l1.345-.27L98 102.764v-5.83a12.09 12.09 0 01-1.662-1.828A15.963 15.963 0 0194 98.582zM92 75a3.005 3.005 0 002 2.829v-5.657A3.005 3.005 0 0092 75zM70 88c0 6.627 5.373 12 12 12s12-5.373 12-12v-6.073c-.7-.1-1.38-.306-2.017-.612a3 3 0 11-3.299-3.298 6.982 6.982 0 01.412-6.77l-1.1-1.648c-2.2 3.13-5.1 5.703-8.471 7.512-.956.51-1.945.955-2.96 1.334a3 3 0 11-4.218 1.161c-.777.14-1.559.244-2.346.309L70 88zm4.05 29.123c.074-.822.233-1.634.475-2.423l-3.125-4.165-1.218.61 1.23 8.612 2.638-2.634zM54 146h14c.27 0 .539.055.788.162L74 148.396v-11.271L67.82 136H54v10zm13.59 12l7.885-3.38a8 8 0 01-.89-1.621L67.59 150H54v4a4.005 4.005 0 004 4h9.59zM88 158h-6a7.953 7.953 0 01-2.944-.564l-10.268 4.402A2 2 0 0168 162v4h20v-8zm3.675-4l12-4-12-4H78v4a4.005 4.005 0 004 4h9.675zM128 158a2 2 0 01-.632-.103L110 152.108l-17.368 5.79A2 2 0 0192 158v8h36v-8zm.325-4H138a4.005 4.005 0 004-4v-10.284L91.847 132H78v10h14a2 2 0 01.632.103L128.325 154zm29.114 12l-1-4H146v-4h9.439l-1-4h-9.514a8.003 8.003 0 01-6.925 4h-6v8h25.439zm4.214-38c.15.658.252 1.327.305 2H166v-2h-4.347zm-9.454 6.8L166 137.56V134h-9.802l-4 .8zM146 137.64v9.806l8.3 2.554h7.7a4.005 4.005 0 004-4v-4.36l-20-4zm2-34.112v-4.692a16.052 16.052 0 01-12 0v4.692l1.615 3.231a12.025 12.025 0 016.368 4.802l4.017-8.033zm3.84 3.628l-.946-.473-4.358 8.718 3.907 2.931 1.397-11.176zm2.118-22.208A7.994 7.994 0 01142 78a8.016 8.016 0 01-11.956 6.965 11.995 11.995 0 0023.914-.017zM154 78a4 4 0 10-8 0 4 4 0 008 0zm2-8a12.004 12.004 0 00-10-11.835v4.898l10 8.334V70zm2 11.829a3 3 0 000-5.657v5.657zM166 74a10.017 10.017 0 00-6.984-9.534A15.98 15.98 0 01160 70v2.677a6.999 6.999 0 01-2 13.25V88a10.018 10.018 0 008 9.8V74zm-24 14a2.002 2.002 0 01-2-2h-4a6 6 0 0012 0h-4a2.002 2.002 0 01-2 2zm-54.94 1.696l-2.12-3.392A10.813 10.813 0 0179.222 88H78v4h1.222a14.806 14.806 0 007.838-2.304zM110 121.194a16.058 16.058 0 01-9.995-3.507l-2.5 3.124a19.998 19.998 0 0023.865.835l-2.27-3.292a16.172 16.172 0 01-9.1 2.84z" fill="#101418" fill-rule="nonzero"/></g></svg>