<svg width="220" height="220" viewBox="0 0 220 220" xmlns="http://www.w3.org/2000/svg"><g fill="none" fill-rule="evenodd"><circle fill="#72F441" cx="110" cy="110" r="110"/><path d="M170 68v24h-4V68a6.007 6.007 0 00-6-6h-36a6.007 6.007 0 00-6 6v30a6.007 6.007 0 006 6h6a2 2 0 011.961 2.392l-1.091 5.456 12.07-7.544A1.999 1.999 0 01144 104h16a6.007 6.007 0 006-6v-2h4v2c-.006 5.52-4.48 9.994-10 10h-15.427l-.573.359v6.94l12.056 15.07A18.065 18.065 0 01160 141.612V170h-4v-28.387a14.05 14.05 0 00-3.068-8.746L144 121.702v13.47l5.414 5.414-2.828 2.828-15.93-15.929a5.071 5.071 0 00-7.17 7.172l9.928 9.929a2 2 0 01.3 2.443 16.5 16.5 0 00.418 17.565l1.531 2.297A2 2 0 01136 168v2h-4v-1.394l-1.195-1.793a20.532 20.532 0 01-1.279-20.458l-8.87-8.87a9.071 9.071 0 0112.83-12.828l6.514 6.515v-20.313l-10.94 6.837a2 2 0 01-3.021-2.088L127.56 108H124c-5.52-.006-9.994-4.48-10-10V68c.006-5.52 4.48-9.994 10-10h15.656A6.01 6.01 0 00134 54H86a6.007 6.007 0 00-6 6h12c5.52.006 9.994 4.48 10 10v20c-.006 5.52-4.48 9.994-10 10h-3.56l1.521 7.608a2 2 0 01-3.125 2.02L73.36 100H60c-5.52-.006-9.994-4.48-10-10V74h4v16a6.007 6.007 0 006 6h14a2 2 0 011.162.373l9.885 7.06-1.008-5.04A2 2 0 0186 96h6a6.007 6.007 0 006-6V70a6.007 6.007 0 00-6-6H60a6.007 6.007 0 00-6 6h-4c.006-5.52 4.48-9.994 10-10h16c.006-5.52 4.48-9.994 10-10h48a10.017 10.017 0 019.8 8H160c5.52.006 9.994 4.48 10 10zM64.695 82.407a8.485 8.485 0 01-1.603-10.374 7.857 7.857 0 015.321-3.894 7.59 7.59 0 016.187 1.54l1.4 1.117 1.4-1.117a7.59 7.59 0 016.186-1.54 7.857 7.857 0 015.321 3.894 8.485 8.485 0 01-1.603 10.375l-9.958 9.071a2 2 0 01-2.694 0l-9.957-9.072zm2.693-2.957L76 87.295l8.612-7.845c1.465-1.335 1.814-3.678.813-5.45a3.814 3.814 0 00-2.601-1.934 3.55 3.55 0 00-2.93.741l-2.648 2.11a2 2 0 01-2.492 0l-2.648-2.11a3.59 3.59 0 00-2.25-.808 3.53 3.53 0 00-.68.067A3.814 3.814 0 0066.575 74c-1 1.773-.651 4.116.813 5.45zM86 166h40v4H86c-5.52-.006-9.994-4.48-10-10h-4c-5.52-.006-9.994-4.48-10-10v-22c.006-5.52 4.48-9.994 10-10h4v-10h4v10h5.36l13.478-9.627a2 2 0 013.125 2.02L100.44 118H102c5.52.006 9.994 4.48 10 10v22c-.006 5.52-4.48 9.994-10 10H80a6.007 6.007 0 006 6zm16-10a6.007 6.007 0 006-6v-22a6.007 6.007 0 00-6-6h-4a2 2 0 01-1.961-2.392l1.008-5.04-9.885 7.06A2 2 0 0186 122H72a6.007 6.007 0 00-6 6v22a6.007 6.007 0 006 6h30zm46-81.917h-4v4h4v-4zm-23.664 20.808l2.393-3.59A8.011 8.011 0 01122 84v-2a2 2 0 011.178-1.825A7.954 7.954 0 01122 76v-2a2 2 0 012-2h11.172l2.928-2.929a10.484 10.484 0 0117.041 3.264l5.753 2.876a2 2 0 010 3.578L156 81.236V82c-.01 8.832-7.168 15.99-16 16h-14a2 2 0 01-1.664-3.11zM130 88a2 2 0 011.664 3.11L129.737 94H140c6.624-.007 11.993-5.376 12-12v-5.515a6.485 6.485 0 00-11.071-4.585l-3.515 3.514A2 2 0 01136 76h-10a4.005 4.005 0 004 4 2 2 0 010 4h-4a4.005 4.005 0 004 4zm-28 58a6.007 6.007 0 01-6 6H74a2 2 0 01-2-2v-14a2 2 0 012-2h8v-6a2 2 0 012-2h4a6.007 6.007 0 016 6v2h2a6.007 6.007 0 016 6v6zm-20-8h-6v10h6v-10zm16 2a2.002 2.002 0 00-2-2h-4a2 2 0 01-2-2v-4a2.002 2.002 0 00-2-2h-2v18h10a2.002 2.002 0 002-2v-6z" fill="#101418" fill-rule="nonzero"/></g></svg>