<svg width="220" height="220" viewBox="0 0 220 220" xmlns="http://www.w3.org/2000/svg"><g fill="none" fill-rule="evenodd"><circle cx="110" cy="110" r="110" fill="#41EDC7"/><path d="M54 115h-4v-4a8.009 8.009 0 018-8h18v4H58a4.005 4.005 0 00-4 4v4zm28-4h8v4h-8v-4zm-12 0h8v4h-8v-4zm44 4h-8v-4h8v4zm-56-4h8v4h-8v-4zm44 0v4h-8v-4h8zM73.6 57.8l-3.2 2.4-6-8 3.2-2.4 6 8zm32-5.6l-6 8-3.2-2.4 6-8 3.2 2.4zM88 49v10h-4V49h4zm54 38a4 4 0 110-8 4 4 0 010 8zm-84 66h13.383l-3.338 15.581A2 2 0 0070 171h56a2 2 0 002-2v-8a2 2 0 00-2-2h-11.73l1.334-6h7.73l4.87 3.655.063.044 2.533 1.9c.396.298.888.438 1.381.393l22-2A2 2 0 00156 155v-18h10v24a5.993 5.993 0 01-6 6h-28v4h28a9.993 9.993 0 0010-10s0-37.071-.002-37.107c-.017-6.24-.196-36.082-2.037-45.285a18.575 18.575 0 00-.596-2.243l-3.793 1.27c.192.575.348 1.162.467 1.757 1.66 8.3 1.915 35.57 1.954 43.457a13.137 13.137 0 01-11.103-13.174c.13-9.9 1.457-19.914 2.7-24.69a2 2 0 00-.88-2.203 57.454 57.454 0 01-15.526-14.011A12.447 12.447 0 01147.572 67c5.805 0 11.268 2.73 14.258 7.125l3.308-2.25C161.413 66.4 154.683 63 147.572 63a16.458 16.458 0 00-10.475 3.776 16.504 16.504 0 00-5.56 9.088l-1.315 5.918-5.332 3.554a2 2 0 000 3.328L130 92.07V101a6.007 6.007 0 006 6h6v8h-5a9.01 9.01 0 00-9 9v7.975a12.51 12.51 0 00-.209 7.573s.17.583.209.705v11.25l-2.8-2.1A2 2 0 00124 149h-3.075a7.948 7.948 0 001.075-4v-34a8.009 8.009 0 00-8-8H92v4h22a4.005 4.005 0 014 4v34a4.005 4.005 0 01-4 4H92v-8a2 2 0 00-2-2H76a2 2 0 00-1.956 1.581L72.24 149H58a4.005 4.005 0 01-4-4v-26h-4v26a8.009 8.009 0 008 8zm98-29a4.99 4.99 0 01.285-1.652A16.927 16.927 0 00166 126.88V133h-10v-9zm-23.415 30.939L132 154.5v-8.368a12.619 12.619 0 006.161 2.733l.5 5.521-6.076.553zM136 103a2.002 2.002 0 01-2-2v-4.016a9.179 9.179 0 007.789-5.09l-3.578-1.789A5.202 5.202 0 01134 92.976V91a2 2 0 00-.89-1.664L129.605 87l3.505-2.336c.428-.286.73-.727.842-1.23l1.49-6.702a12.493 12.493 0 012.688-5.375 61.185 61.185 0 0015.248 14.047c-1.196 5.393-2.365 14.89-2.487 24.22a17.245 17.245 0 00.782 5.376H146v-10a2 2 0 00-2-2h-8zm-4 21a5.006 5.006 0 015-5h2.171L132 126.172V124zm-.13 9.03a8.534 8.534 0 011.957-3.028L144.828 119h8.689a8.939 8.939 0 00-1.517 5v29.175l-9.354.85-.654-7.205A2 2 0 00140 145a8.614 8.614 0 01-8.12-5.761c-.052-.145-.241-.788-.241-.788a8.546 8.546 0 01.231-5.422zM124 163v4h-24v-4h24zm-12.493-10l-.38 1.708-2.542.23L106 153h5.507zM92 153h7.333l7.467 5.6a2 2 0 001.2.4H92v-6zm-14.383-10H88v18a2 2 0 002 2h6v4H72.475l5.142-24z" fill="#101418" fill-rule="nonzero"/><path d="M67.05 86.608a12.732 12.732 0 01-2.404-15.565 11.783 11.783 0 017.98-5.84 11.38 11.38 0 019.278 2.31l2.1 1.675 2.1-1.675a11.38 11.38 0 019.276-2.31 11.783 11.783 0 017.98 5.842 12.732 12.732 0 01-2.404 15.564l-14.934 13.608a2.999 2.999 0 01-4.04 0L67.05 86.607z" stroke="#101418" stroke-width="4"/></g></svg>