<svg width="110" height="36" viewBox="0 0 110 36" xmlns="http://www.w3.org/2000/svg"><g fill="none" fill-rule="evenodd"><path d="M61.387 15.455v4.39c0 1.11.024 2.221-.022 3.33-.01.218-.285.604-.451.61-1.265.051-2.533.028-3.851.028-.023-.308-.055-.537-.055-.766a9164.77 9164.77 0 010-13.873c.001-2.514.724-4.748 2.644-6.474 2.68-2.41 7.388-2.774 10.662-.858 3.047 1.783 4.561 5.604 3.719 9.388-.974 4.376-5.298 7.121-9.512 5.909-1.096-.315-2.058-1.092-3.134-1.684m8.39-6.451c-.005-2.552-1.712-4.316-4.183-4.32-2.472-.005-4.182 1.75-4.199 4.308-.017 2.579 1.726 4.376 4.226 4.358 2.466-.018 4.159-1.789 4.155-4.346M53.78 16.966h-3.976v-2.382c-.133.026-.171.024-.178.036-2.2 4.351-9.829 3.527-12.22-1.593-1.634-3.503-1.074-9.594 4.26-11.743 3.86-1.556 8.485-.397 10.668 2.717.921 1.313 1.427 2.795 1.47 4.373.074 2.744.032 5.492.035 8.238 0 .1-.033.201-.06.354m-4.347-7.92c.01-2.574-1.648-4.326-4.131-4.362-2.472-.037-4.206 1.714-4.226 4.266-.02 2.616 1.665 4.395 4.168 4.4 2.475.005 4.178-1.745 4.189-4.304" fill="#41EDC7"/><path d="M.994.764h5.812c.016.338.044.656.045.974.003 3.714 0 7.428.004 11.142 0 .519 0 1.041.056 1.555.317 2.91 2.639 4.387 5.261 3.362 1.086-.424 1.762-1.263 2.014-2.418.172-.79.252-1.619.257-2.432.026-3.713.012-7.427.012-11.142V.772h5.787c.012.297.034.586.034.875.003 3.878 0 7.757.006 11.634.001.463.007.933.085 1.386.47 2.757 2.521 4.036 5.07 3.184 1.344-.45 2.252-1.697 2.306-3.45.08-2.592.056-5.188.068-7.781.01-1.721.019-3.442-.007-5.162-.008-.556.142-.772.701-.76 1.504.036 3.008.017 4.512.009.371-.002.654.018.649.548-.048 4.64.131 9.296-.164 13.92-.476 7.467-6.229 9.356-10.982 8.42-2.139-.42-3.075-1.098-5.161-3.442-.074.051-.174.09-.23.165-2.344 3.147-5.495 3.935-9.05 3.303-3.961-.703-6.619-3.72-6.901-8.011-.215-3.264-.141-6.548-.18-9.822C.977 4.13.993 2.473.993.764" fill="#EB4CBB"/><path d="M81.135 15.454v4.39c0 1.11.024 2.221-.022 3.33-.01.219-.285.604-.45.611-1.266.051-2.533.028-3.852.028-.024-.307-.055-.536-.056-.765-.002-4.624-.003-9.25 0-13.873.002-2.513.725-4.749 2.645-6.475 2.68-2.409 7.387-2.774 10.662-.859 3.046 1.783 4.56 5.605 3.72 9.388-.974 4.376-5.298 7.122-9.513 5.91-1.096-.316-2.057-1.091-3.134-1.685m8.389-6.473c-.01-2.545-1.738-4.311-4.205-4.299-2.473.013-4.173 1.777-4.176 4.332-.003 2.58 1.748 4.367 4.249 4.336 2.464-.03 4.142-1.805 4.132-4.369" fill="#41EDC7"/><path d="M17.483 35.615c-5.013.028-9.456-1.333-13.488-4.014-.988-.657-2.19-1.413-1.25-2.871.99-1.534 2.1-.785 3.268-.06 7.522 4.665 15.068 4.635 22.57-.05 1.094-.684 2.166-1.37 3.11-.02 1.059 1.518-.162 2.358-1.251 3.065-3.982 2.587-8.337 3.973-12.959 3.95" fill="#EB4CBB"/><path d="M96.421 1.6h1.556v2.29h3.359c0 .456.005.889-.01 1.32-.002.039-.143.102-.22.102-.938.008-1.876.005-2.814.005h-.313v2.467c0 .097.002.194.01.29.077.863.855 1.301 1.639.918.378-.186.5-.527.526-.917.024-.351.022-.351.382-.352h1.178c.088 1.551-.683 2.628-2.14 2.808-.628.078-1.245.037-1.828-.23-.775-.356-1.155-1-1.285-1.813a4.043 4.043 0 01-.048-.625c-.003-2.016-.002-4.031-.002-6.046 0-.064.006-.128.01-.219m12.722 2.293c-.038.118-.06.2-.092.28-.786 2.001-1.575 4.002-2.356 6.006-.067.172-.156.23-.336.225-.485-.011-.97-.008-1.455-.001-.135.002-.2-.047-.25-.17-.8-2.049-1.604-4.095-2.408-6.142-.02-.05-.032-.104-.06-.198h.596c.29 0 .582.011.873-.004.179-.009.252.063.308.224.523 1.49 1.054 2.976 1.583 4.464.037.103.077.206.14.374l.66-1.848c.357-1.002.717-2.002 1.066-3.006.055-.157.13-.211.296-.207.466.01.932.003 1.435.003" fill="#41EDC7"/></g></svg>