<svg width="220" height="220" viewBox="0 0 220 220" xmlns="http://www.w3.org/2000/svg"><g fill="none" fill-rule="evenodd"><circle fill="#41EDC7" cx="110" cy="110" r="110"/><path d="M58.67 57.079l-3.474-1.984c2.743-4.79 8.847-6.457 13.644-3.725l-1.984 3.474a6.006 6.006 0 00-8.186 2.235zm-8.758 31.53l3.81-1.218a6.006 6.006 0 013.887-7.543l-1.218-3.81c-5.256 1.688-8.154 7.311-6.48 12.571zM75 142v-4H59v4h16zm32.353-47.402l3.294-2.27a10.063 10.063 0 00-11.97-3.606l1.496 3.71a6.036 6.036 0 017.18 2.166zm-7.105 12.261a10.125 10.125 0 001.966-5.576l-5.064.78a10.207 10.207 0 00-8.64 9.626l5.065-.78a10.208 10.208 0 004.62-1.958l2.423 3.183a14.223 14.223 0 01-6.434 2.729l-5.944.915L84.684 130H95v4H53.36l5.334 32H95v4H57a2 2 0 01-1.973-1.671l-6-36A2 2 0 0151 130h15.681l1.619-4.858-5.632-2.375c-7.688-3.252-11.294-12.114-8.059-19.81a2 2 0 012.62-1.066l7.255 3.059a15.066 15.066 0 017.941 7.816l1.608-4.824-2.005-7.356-5.091-1.07c-6.782-1.427-11.123-8.081-9.697-14.864a2 2 0 012.368-1.545l6.194 1.302c.853.18 1.685.447 2.482.799l2.783-7.364-3.56-2.306a11.64 11.64 0 01-5.255-8.511l3.976-.443a7.653 7.653 0 003.455 5.597l2.97 1.925a7.689 7.689 0 00-3.132-8.792l-2.972-1.927a7.623 7.623 0 00-.245.972l-3.934-.718a11.6 11.6 0 011.69-4.25 2 2 0 012.765-.591l4.871 3.157a11.6 11.6 0 013.831 4.09l1.555-4.115-3.931-2.183a2 2 0 01.269-3.622l16-6a2 2 0 012.687 1.625l2 16a2 2 0 01-2.957 1.996l-3.992-2.219-1.925 7.163a12.475 12.475 0 015.438-1.24H97a2 2 0 012 2c-.007 6.928-5.622 12.543-12.55 12.55h-3.471l5.281 14.52a14.089 14.089 0 018.28-4.412l7.235-1.114a1.998 1.998 0 012.281 1.672 14.107 14.107 0 01-2.583 10.557l-3.225-2.366zM71.766 96.444a8.564 8.564 0 00-6.787-8.119l-4.008-.843a8.558 8.558 0 006.79 8.12l4.005.841zM82.357 84h4.093a8.565 8.565 0 008.313-6.55H90.67A8.564 8.564 0 0082.357 84zM62.93 108.637l-5.248-2.212a11.13 11.13 0 006.54 12.658l5.247 2.212a11.142 11.142 0 00-6.539-12.658zm22.62-1.862l-7.307-20.091a1.991 1.991 0 01-.122-.682 12.473 12.473 0 011.553-6.04l4.287-15.943a2 2 0 012.903-1.23l2.785 1.549-1.197-9.575-9.575 3.59 1.659.922a2 2 0 01.9 2.455l-4.63 12.25a11.584 11.584 0 01-1.4 3.697L72.222 86.1l.732 2.682a12.534 12.534 0 012.67 9.793l2.427 8.9a2 2 0 01-.033 1.159L70.897 130h9.664l4.043-16.177a14.09 14.09 0 01.946-7.048zm56.56-12.928l-2.22-3.328a8.793 8.793 0 01-9.78 0l-2.22 3.328a12.784 12.784 0 0014.22 0zm28.89 36.35V134h-4v-3.803a8.021 8.021 0 00-6.432-7.843l-10.369-2.075-5.36 12.508a2 2 0 01-3.4.462l-.237-.296-.19 1.14.438 6.142s9.302-2.22 9.323-2.222C150.825 138.008 163 138 163 138a2 2 0 011.11.336l2.89 1.927V138h4v22c-.006 5.52-4.48 9.994-10 10h-52a10.017 10.017 0 01-9.799-8h-1.716a7.948 7.948 0 01-5.657-2.343l-11-11a6.243 6.243 0 018.829-8.829l1.822 1.823A6.01 6.01 0 0197 138h2v-7.803a12.032 12.032 0 019.648-11.766l11.572-2.314 4.78-3.187v-4.102A16.023 16.023 0 01115 94v-6a8 8 0 110-16v-8a9.93 9.93 0 01.517-3.175A7.997 7.997 0 01123 50h1.75v4H123a4 4 0 000 8h20v-4.9a21.74 21.74 0 00-11.211-3.1H128.5v-4h3.289a25.725 25.725 0 0113.829 4.021A10.011 10.011 0 01155 64v8a8 8 0 010 16v6a16.023 16.023 0 01-10 14.828v4.102l4.78 3.186 11.572 2.315A12.032 12.032 0 01171 130.197zM155 84a4 4 0 100-8v8zm-40-8a4 4 0 100 8v-8zm32-12.702l4 5V64a6.01 6.01 0 00-4-5.657v4.955zm-27.525 10.81L126.07 84H131v-4h4v4h8.93l6.595-9.892L144.039 66H125.96l-6.486 8.108zm-.475-5.81l2.035-2.543a7.954 7.954 0 01-2.035-.831v3.374zM131 106h8c6.624-.007 11.993-5.376 12-12V80.606l-4.336 6.504A2 2 0 01145 88h-20a2 2 0 01-1.664-.89L119 80.605V94c.007 6.624 5.376 11.993 12 12zm6.027 27.671l.819-4.912-2.846-3.557-2.845 3.556.818 4.913c.026.156.033.314.022.472l-.59 8.263 5.102-1.225-.502-7.04a2.008 2.008 0 01.022-.47zm-2.027-14.5l6-6v-3.3a16.05 16.05 0 01-2 .13h-8a16.05 16.05 0 01-2-.13v3.3l6 6zm-11.506-.43l4.03 9.403 4.796-5.996-5.575-5.575-3.251 2.168zM103 138h4.789a7.984 7.984 0 016.656 3.563l1.702 2.552 6.245.694 5.933-1.424.663-9.29-.19-1.141-.236.296a2 2 0 01-3.4-.462L119.8 120.28l-10.369 2.076a8.021 8.021 0 00-6.431 7.842V138zm10 20v-11.394l-1.883-2.826a3.993 3.993 0 00-3.328-1.78H97a2 2 0 000 4h8a2 2 0 010 4H95a2 2 0 01-1.414-.586l-6.758-6.757a2.243 2.243 0 00-3.171 3.171l11 11A3.973 3.973 0 0097.485 158H113zm7.853 5.21l-6.051-1.21h-11.458a6.01 6.01 0 005.656 4h5.575l6.278-2.79zm14.314 2.79l-7.522-1.431-3.22 1.431h10.742zM153 148.21l14 1.555v-4.695l-4.606-3.07H153v6.21zm-36 .025v10.125l38.198 7.64H161a6.007 6.007 0 006-6v-6.21l-50-5.555zm17.107-2.125L149 147.765v-5.228l-14.893 3.573zm12.4-27.37l-3.25-2.167-5.576 5.575 4.797 5.995 4.028-9.403z" fill="#101418" fill-rule="nonzero"/><path fill="#41EDC7" d="M115 50h10v8h-10z"/><path fill="#41EDC7" fill-rule="nonzero" d="M128.338 143.39l4.053-.97 9.064-2.17-.26-7.312-3.39-4.235h-5.674l-3.355 4.235z"/><path stroke="#101418" stroke-width="4" fill="#D8D8D8" stroke-linecap="square" d="M135 125.5v17"/><path fill="#41EDC7" d="M119.475 74.33L119 80.605l4 8.684h24l4-8.684-.475-6.498z"/><path d="M131 76a4 4 0 10-8 0 4 4 0 008 0zm16 0a4 4 0 10-8 0 4 4 0 008 0z" fill="#101418" fill-rule="nonzero"/><path stroke="#101418" stroke-width="4" d="M116.995 58v-5.97h11.983"/></g></svg>