<svg width="22" height="18" viewBox="0 0 22 18" xmlns="http://www.w3.org/2000/svg"><path d="M19.38 4.376c.013.191.013.383.013.575 0 5.852-4.454 12.596-12.595 12.596A12.51 12.51 0 010 15.559c.356.041.699.055 1.069.055 2.07 0 3.975-.699 5.496-1.891a4.435 4.435 0 01-4.14-3.07c.275.04.55.068.837.068.397 0 .795-.055 1.165-.15a4.427 4.427 0 01-3.55-4.345V6.17a4.47 4.47 0 002.001.562A4.424 4.424 0 01.905 3.046c0-.822.219-1.576.603-2.234a12.583 12.583 0 009.127 4.633 4.997 4.997 0 01-.11-1.015A4.425 4.425 0 0114.954.003c1.274 0 2.426.535 3.234 1.398 1-.191 1.96-.562 2.81-1.069a4.415 4.415 0 01-1.946 2.44 8.875 8.875 0 002.549-.685 9.516 9.516 0 01-2.22 2.289z" fill="#FFF"/></svg>